<svg width="88" height="83" viewBox="0 0 88 83" fill="none" xmlns="http://www.w3.org/2000/svg">
<path d="M75.3074 27.332L78.2074 25.266L52.3159 25.5124L43.4074 0L34.4989 25.5124L8.60742 25.285L29.7983 40.3536L21.8944 66.1882L23.9225 64.7667C25.0218 56.5974 29.6087 48.0111 36.3375 41.3013C44.9427 32.6961 62.0394 26.6686 75.3074 27.332Z" fill="#032246"/>
<path d="M64.9199 66.1885L57.016 40.3539L75.3068 27.3513C62.0199 26.6879 44.9421 32.6964 36.3369 41.3016C29.6081 48.0303 25.0212 56.5977 23.9219 64.7669L43.4068 51.1009L64.9199 66.1885Z" fill="#032246"/>
<path d="M85.1059 71.7607V77.447L79.9883 71.7607V82.1856H81.8837V76.4993L87.0014 82.1856V71.7607H85.1059Z" fill="#032246"/>
<path d="M76.3866 80.2902V73.6562H78.282V71.7607H72.5957V73.6562H74.4911V80.2902H72.5957V82.1856H78.282V80.2902H76.3866Z" fill="#032246"/>
<path d="M67.1963 78.1106L71.0819 81.9962V71.7988H69.2812V77.7505L67.1583 75.6276L64.9217 77.8642V71.7988H63.1211V82.1858L67.1963 78.1106Z" fill="#032246"/>
<path d="M58.9494 82.1856V73.6562H61.603V71.7607H54.4004V73.6562H57.2435V82.1856H58.9494Z" fill="#032246"/>
<path d="M51.3676 71.7607V77.447L46.25 71.7607V82.1856H48.1454V76.4993L53.2631 82.1856V71.7607H51.3676Z" fill="#032246"/>
<path d="M39.7105 71.7607C36.8294 71.7607 34.498 74.0921 34.498 76.9732C34.498 79.8542 36.8294 82.1856 39.7105 82.1856C42.5915 82.1856 44.9229 79.8542 44.9229 76.9732C44.9229 74.0921 42.5915 71.7607 39.7105 71.7607ZM39.7105 80.2902C37.8719 80.2902 36.3935 78.8117 36.3935 76.9732C36.3935 75.1346 37.8719 73.6562 39.7105 73.6562C41.549 73.6562 43.0275 75.1346 43.0275 76.9732C43.0275 78.8117 41.549 80.2902 39.7105 80.2902Z" fill="#032246"/>
<path d="M31.8455 80.2902V73.6562H33.741V71.7607H28.0547V73.6562H29.9501V80.2902H28.0547V82.1856H33.741V80.2902H31.8455Z" fill="#032246"/>
<path d="M24.2639 82.1856V73.6562H26.9175V71.7607H19.7148V73.6562H22.558V82.1856H24.2639Z" fill="#032246"/>
<path d="M14.5015 71.7607C11.6204 71.7607 9.28906 74.0921 9.28906 76.9732C9.28906 79.8542 11.6204 82.1856 14.5015 82.1856C17.3825 82.1856 19.7139 79.8542 19.7139 76.9732C19.7139 74.0921 17.3825 71.7607 14.5015 71.7607ZM14.5015 80.2902C12.6629 80.2902 11.1845 78.8117 11.1845 76.9732C11.1845 75.1346 12.6629 73.6562 14.5015 73.6562C16.34 73.6562 17.8185 75.1346 17.8185 76.9732C17.8185 78.8117 16.34 80.2902 14.5015 80.2902Z" fill="#032246"/>
<path d="M3.88757 75.874L0.00195312 71.9884V82.1858H1.80261V76.2152L3.92548 78.357L6.16208 76.1204V82.1858H7.96274V71.7988L3.88757 75.874Z" fill="#032246"/>
</svg>
