<svg width="174" height="43" viewBox="0 0 174 43" fill="none" xmlns="http://www.w3.org/2000/svg">
<path fill-rule="evenodd" clip-rule="evenodd" d="M22.6294 42.6178C9.06497 42.6141 0.00195312 33.0027 0.00195312 21.3478C0.00195312 9.69189 9.08809 -0.0304436 22.61 7.16382e-05H150.394C163.916 -0.0304436 173.002 9.69189 173.002 21.3478C173.002 33.0027 163.937 42.6141 150.372 42.6178H22.6294Z" fill="#032246"/>
<path fill-rule="evenodd" clip-rule="evenodd" d="M22.6735 5.24414C11.9349 5.26263 5.3418 12.4411 5.3418 21.3192C5.3418 30.1963 11.8924 37.4312 22.6735 37.3915H150.331C161.111 37.4312 167.665 30.1963 167.665 21.3192C167.665 12.4411 161.071 5.26356 150.331 5.24414H22.6735Z" fill="white"/>
<path fill-rule="evenodd" clip-rule="evenodd" d="M17.1649 11.242H23.4122L32.0628 25.2309L32.0582 11.242H38.2583V31.3062H32.0665L23.3724 17.3164V31.3062H17.1621L17.1649 11.242ZM71.9795 13.3078H78.0178V16.007H81.2848V17.9886H78.0178L78.0215 31.3062H71.9795L71.9822 17.9886H68.7032V16.0088H71.9841L71.9795 13.3078ZM41.713 17.9646H47.7467V31.3062H41.713V17.9646ZM41.7 11.2383H47.7467V15.3403H41.7V11.2383ZM149.862 24.5281C149.862 24.5281 149.858 26.5421 149.858 27.3531C149.858 29.479 148.603 30.3584 147.391 30.3584C146.184 30.3584 144.92 29.479 144.92 27.3531C144.92 26.5421 144.924 24.4782 144.924 24.4782C144.924 24.4782 144.929 22.5058 144.929 21.6948C144.929 19.5773 146.188 18.7062 147.391 18.7062C148.594 18.7062 149.858 19.5773 149.858 21.6948C149.858 22.5058 149.858 23.9992 149.862 24.5374V24.5281ZM147.438 17.0528C142.57 17.0528 138.625 20.4076 138.625 24.5466C138.625 28.6828 142.571 32.0367 147.438 32.0367C152.311 32.0367 156.257 28.6828 156.257 24.5466C156.257 20.4076 152.311 17.0528 147.438 17.0528ZM130.704 11.242H136.658V31.3025H130.694L130.691 30.535C128.385 31.9831 125.775 31.9794 123.744 31.0353C123.201 30.781 119.617 29.061 119.617 24.4218C119.617 20.8968 122.943 17.0528 127.288 17.4338C128.72 17.5614 129.736 18.0829 130.703 18.6239L130.704 11.242ZM130.747 24.5679V22.184C130.747 20.1201 129.324 19.5948 128.385 19.5948C127.422 19.5948 126.016 20.1201 126.016 22.184C126.016 22.8646 126.02 24.5623 126.02 24.5623C126.02 24.5623 126.016 26.2222 126.016 26.9333C126.016 28.9954 127.422 29.5335 128.385 29.5335C129.324 29.5335 130.747 28.9954 130.747 26.9333V24.5679ZM61.8697 17.3478C64.1241 17.2858 68.7032 18.7626 68.6699 24.0463C68.6635 24.9821 68.6681 31.3034 68.6681 31.3034H62.6742V22.5419C62.6742 21.3777 61.5618 20.084 59.9195 20.084C58.2744 20.084 57.0538 21.3777 57.0538 22.5419L57.0603 31.3034H51.0691L51.0645 17.9627L57.0594 17.9581C57.0594 17.9581 57.0529 19.0326 57.0594 19.3599C58.3593 18.1183 60.0728 17.4015 61.8697 17.3478ZM110.904 17.3478C113.155 17.2858 117.733 18.7626 117.704 24.0463C117.695 24.9821 117.699 31.3034 117.699 31.3034H111.705V22.5419C111.705 21.3777 110.594 20.084 108.95 20.084C107.306 20.084 106.082 21.3777 106.082 22.5419L106.091 31.3034H100.102L100.105 17.9627L106.091 17.9581C106.091 17.9581 106.082 19.0326 106.091 19.3599C107.391 18.1174 109.106 17.4006 110.904 17.3478ZM86.906 22.614C86.8949 21.447 86.919 20.6666 87.3018 19.9952C87.7771 19.1741 88.6435 18.7829 89.4277 18.7792H89.424C90.2137 18.7829 91.0746 19.1741 91.5462 19.9952C91.929 20.6656 91.9512 21.447 91.942 22.614H86.906ZM91.9161 26.6383C91.9161 26.6383 91.9216 26.6975 91.9216 27.4493C91.9216 29.8895 90.3163 30.4333 89.4277 30.4333C88.5354 30.4333 86.9014 29.8895 86.9014 27.4493C86.9014 26.716 86.9107 24.6936 86.9107 24.6936C86.9107 24.6936 98.2725 24.6973 98.2725 24.6936C98.2725 20.5547 94.2796 17.1268 89.3722 17.1268C84.4676 17.1268 80.4886 20.4816 80.4886 24.616C80.4886 28.7559 84.4676 32.1107 89.3722 32.1107C93.4428 32.1107 96.8799 29.786 97.9331 26.6327L91.9161 26.6383ZM156.677 16.0162H155.981V11.4473H157.724C158.801 11.4473 159.337 11.8458 159.337 12.7455C159.337 13.5621 158.824 13.9181 158.151 14.0041L159.449 16.0162H158.676L157.469 14.0346H156.677V16.0162ZM157.503 13.4474C158.091 13.4474 158.61 13.4067 158.61 12.7039C158.61 12.1389 158.097 12.0326 157.619 12.0326H156.676V13.4474H157.503Z" fill="#032246"/>
<path fill-rule="evenodd" clip-rule="evenodd" d="M153.488 13.7189C153.488 11.446 155.334 9.76953 157.513 9.76953C159.673 9.76953 161.513 11.4469 161.513 13.7189C161.513 16.015 159.673 17.6905 157.513 17.6905C155.334 17.6905 153.488 16.0159 153.488 13.7189ZM157.513 17.0303C159.306 17.0303 160.717 15.6266 160.717 13.7189C160.717 11.8455 159.307 10.4288 157.513 10.4288C155.701 10.4288 154.287 11.8455 154.287 13.7189C154.287 15.6275 155.701 17.0303 157.513 17.0303Z" fill="#032246"/>
</svg>
