<svg width="163" height="59" viewBox="0 0 163 59" fill="none" xmlns="http://www.w3.org/2000/svg">
<path d="M73.7385 40.241V24.6781H74.0129L85.2244 40.241H88.7525V17.3867H84.8324V32.9104H84.558L73.3465 17.3867H69.8184V40.241H73.7385ZM99.8464 40.5938C105.021 40.5938 108.196 37.2225 108.196 31.5775C108.196 25.9718 105.021 22.5613 99.8464 22.5613C94.711 22.5613 91.4966 25.9718 91.4966 31.5775C91.5358 37.2225 94.6718 40.5938 99.8464 40.5938ZM99.8464 37.3009C97.1023 37.3009 95.5343 35.2232 95.5343 31.5775C95.5343 27.971 97.1023 25.8542 99.8464 25.8542C102.59 25.8542 104.159 27.971 104.159 31.5775C104.159 35.2232 102.59 37.3009 99.8464 37.3009ZM111.764 18.6804V23.0317H109.019V26.1678H111.764V35.6152C111.764 38.9865 113.332 40.3194 117.33 40.3194C118.075 40.3194 118.82 40.241 119.408 40.1234V37.0657C118.937 37.1049 118.624 37.1441 118.075 37.1441C116.428 37.1441 115.684 36.3993 115.684 34.6744V26.1678H119.408V23.0317H115.684V18.6804H111.764ZM121.76 40.241H125.68V22.9141H121.76V40.241ZM123.72 20.0524C125.013 20.0524 126.072 18.994 126.072 17.7003C126.072 16.3675 125.013 15.3091 123.72 15.3091C122.426 15.3091 121.368 16.3675 121.368 17.7003C121.368 18.994 122.426 20.0524 123.72 20.0524ZM136.421 40.5938C141.596 40.5938 144.771 37.2225 144.771 31.5775C144.771 25.9718 141.596 22.5613 136.421 22.5613C131.286 22.5613 128.071 25.9718 128.071 31.5775C128.071 37.2225 131.207 40.5938 136.421 40.5938ZM136.421 37.3009C133.677 37.3009 132.109 35.2232 132.109 31.5775C132.109 27.971 133.677 25.8542 136.421 25.8542C139.126 25.8542 140.733 27.971 140.733 31.5775C140.694 35.2232 139.126 37.3009 136.421 37.3009ZM147.084 40.241H151.004V30.1663C151.004 27.6182 152.493 26.011 154.806 26.011C157.198 26.011 158.295 27.3438 158.295 29.9703V40.241H162.215V29.0295C162.215 24.8741 160.098 22.5613 156.257 22.5613C153.669 22.5613 151.945 23.7373 151.121 25.6974H150.847V22.9141H147.044C147.084 22.9141 147.084 40.241 147.084 40.241Z" fill="#032246"/>
<path fill-rule="evenodd" clip-rule="evenodd" d="M9.76302 10.3307C11.6055 11.8204 12.2719 11.7028 15.7216 11.4676L48.2193 9.50751C48.9249 9.50751 48.3369 8.80189 48.1017 8.72349L42.6919 4.84258C41.6727 4.05856 40.2615 3.11773 37.635 3.35294L6.19573 5.6658C5.05889 5.78341 4.82369 6.37143 5.2941 6.80264L9.76302 10.3307ZM11.7231 17.8965V52.0799C11.7231 53.9223 12.6247 54.5888 14.7024 54.4712L50.4146 52.3935C52.4922 52.2759 52.7274 51.0215 52.7274 49.5318V15.5837C52.7274 14.094 52.1394 13.2708 50.885 13.3884L13.5655 15.5837C12.1935 15.7013 11.7231 16.4069 11.7231 17.8965ZM46.9649 19.739C47.2001 20.7582 46.9649 21.8166 45.9456 21.9343L44.2208 22.2871V47.5326C42.7311 48.3166 41.3591 48.787 40.1831 48.787C38.3406 48.787 37.8702 48.199 36.4982 46.4741L25.2475 28.7944V45.8861L28.8148 46.6701C28.8148 46.6701 28.8148 48.7478 25.9531 48.7478L18.0345 49.2182C17.7992 48.7478 18.0345 47.611 18.8185 47.3758L20.8961 46.7877V24.2079L18.0345 23.9727C17.7992 22.9535 18.3873 21.4638 19.9945 21.3462L28.5011 20.7582L40.2223 38.6339V22.8359L37.243 22.4831C37.0078 21.2286 37.9486 20.2878 39.0854 20.1702L46.9649 19.739ZM3.56925 2.52972L36.3022 0.13845C40.3007 -0.21436 41.3591 0.0208476 43.868 1.8633L54.2955 9.1939C56.0203 10.4483 56.6083 10.8011 56.6083 12.1732V52.4327C56.6083 54.9416 55.7067 56.4312 52.4922 56.6664L14.5064 58.9793C12.0759 59.0969 10.9391 58.7441 9.68462 57.1368L1.96201 47.1405C0.589969 45.2981 0.00195312 43.9261 0.00195312 42.3188V6.52823C0.00195312 4.45057 0.942779 2.76492 3.56925 2.52972Z" fill="#032246"/>
</svg>
