<svg width="204" height="44" viewBox="0 0 204 44" fill="none" xmlns="http://www.w3.org/2000/svg">
<path d="M19.8754 0.131922C13.075 0.906293 7.2406 4.4813 3.59571 10.0955C2.20472 12.225 1.00693 15.1934 0.465994 17.865C0.131127 19.5299 0.131127 24.4601 0.465994 26.125C1.8441 32.9523 6.13297 38.5794 12.2121 41.5995C14.7622 42.8643 17.1192 43.5483 20.0299 43.858C20.8413 43.9484 26.65 44 36.477 44C49.305 44 51.9067 43.9742 53.1946 43.8064C58.5396 43.1095 62.8929 40.9541 66.4991 37.1984C68.1477 35.4819 69.2038 34.0106 70.2342 31.9973C71.8956 28.732 72.5911 25.7765 72.5911 21.995C72.5911 18.2135 71.8956 15.258 70.2342 11.9927C69.2038 9.97933 68.1477 8.50803 66.4991 6.79151C62.8929 3.03581 58.5396 0.88048 53.1946 0.183547C51.9067 0.0157668 49.3565 -0.0100455 36.2581 0.00286065C27.7834 0.0157668 20.4034 0.0673915 19.8754 0.131922ZM52.3188 14.9998C54.9205 15.7097 57.0456 17.7618 57.6767 20.1881C57.9214 21.169 57.9214 22.821 57.6767 23.8018C57.0327 26.2669 54.8947 28.319 52.2544 28.9901C51.4301 29.2095 50.2838 29.2224 36.3611 29.2224C22.3611 29.2224 21.305 29.2095 20.5194 28.9901C17.9563 28.2932 16.1918 26.7574 15.2774 24.4342C14.9683 23.6341 14.9297 23.3759 14.9297 21.995C14.9297 20.614 14.9683 20.3559 15.2774 19.5557C16.2949 16.9616 18.4715 15.2709 21.3565 14.845C21.7815 14.7804 28.7365 14.7417 36.8119 14.7546C50.2838 14.7804 51.5589 14.7933 52.3188 14.9998ZM156.269 17.2197V31.7391H160.777V2.70025H156.269V17.2197ZM193.491 12.1992C191.391 12.6638 189.717 13.8899 188.88 15.5935C188.416 16.5228 188.403 16.6131 188.403 17.9166C188.403 19.1298 188.442 19.3621 188.751 20.0332C189.511 21.6465 191.095 22.6661 193.89 23.3501C197.496 24.2277 198.308 24.5504 198.784 25.3248C199.596 26.667 198.321 27.9705 196.054 28.0996C194.251 28.2028 192.267 27.6479 190.683 26.6154C190.284 26.3444 189.885 26.0862 189.794 26.0217C189.691 25.9572 189.253 26.4476 188.481 27.4672C187.837 28.319 187.296 29.0676 187.283 29.1321C187.167 29.5709 190.477 31.3907 192.267 31.894C193.658 32.2683 196.968 32.307 198.256 31.9585C200.356 31.3907 201.914 30.2033 202.725 28.5384C203.202 27.5704 203.215 27.5317 203.215 26.0604C203.215 24.6407 203.202 24.5375 202.79 23.7115C201.888 21.8659 200.201 20.8463 196.556 19.93C195.307 19.6202 194.058 19.246 193.774 19.104C192.679 18.5361 192.409 17.6456 193.104 16.8454C193.607 16.2775 194.444 15.9936 195.629 15.9936C196.917 15.9936 197.728 16.1872 199.068 16.8067C199.725 17.1035 200.24 17.2713 200.304 17.2068C200.665 16.7938 202.378 14.3287 202.378 14.2126C202.378 13.9932 200.987 13.1801 199.931 12.78C197.947 12.0056 195.41 11.7862 193.491 12.1992ZM120.941 12.5864C117.219 13.4124 114.759 15.8 113.754 19.5428C113.522 20.3559 113.471 20.9367 113.471 22.3176C113.458 24.3439 113.664 25.3119 114.411 26.8993C115.351 28.9256 116.665 30.2807 118.597 31.2229C120.232 32.0231 121.018 32.1779 123.169 32.1909C125.371 32.1909 126.144 32.0231 127.87 31.1713C129.003 30.6034 130.381 29.5451 130.381 29.2482C130.381 29.1579 129.699 28.4093 128.862 27.5704L127.329 26.0346L126.582 26.5638C124.096 28.3061 120.503 27.8157 118.957 25.5055C118.275 24.4859 117.991 23.5566 117.978 22.3176C117.953 19.8138 119.176 17.9941 121.366 17.2713C122.898 16.7551 124.998 16.9874 126.337 17.8134C126.556 17.9424 126.801 18.0586 126.865 18.0586C127.007 18.0586 129.609 14.7675 129.609 14.5997C129.609 14.29 127.2 13.0381 125.938 12.6896C124.83 12.3928 122.061 12.3283 120.941 12.5864ZM98.0796 12.7542C97.5644 12.8832 96.6371 13.2446 96.0189 13.5414C95.1044 13.9932 94.6794 14.3158 93.7392 15.2709C92.9922 16.0194 92.4255 16.7422 92.155 17.2584C90.4549 20.485 90.4549 24.1503 92.155 27.3769C92.4255 27.8931 92.9922 28.6158 93.7392 29.3644C94.6794 30.3195 95.1045 30.6292 95.9931 31.068C97.5258 31.8295 98.8009 32.1263 100.527 32.1263C102.304 32.1263 103.463 31.8682 104.944 31.1584C106.851 30.242 108.254 28.8352 109.195 26.8993C109.993 25.2861 110.212 24.2794 110.212 22.3176C110.212 20.3559 109.993 19.3492 109.195 17.7359C108.254 15.7871 106.876 14.4061 104.944 13.4769C104.313 13.1672 103.373 12.8316 102.858 12.7154C101.596 12.4315 99.3032 12.4573 98.0796 12.7542ZM102.909 17.5423C106.76 19.3363 106.709 25.299 102.845 27.1316C102.034 27.5188 101.892 27.5446 100.565 27.5446C99.2516 27.5446 99.0842 27.5188 98.3114 27.1445C95.6583 25.8797 94.6021 22.5112 95.9803 19.7622C97.2296 17.2842 100.282 16.3034 102.909 17.5423ZM133.125 19.0524C133.163 24.3697 133.202 25.3506 133.395 26.125C134.155 29.1708 136.28 31.2874 139.217 31.9456C140.556 32.2425 142.849 32.1392 144.034 31.7391C145.012 31.4036 145.863 30.9906 146.468 30.526C146.713 30.3453 146.957 30.2291 147.009 30.2678C147.073 30.3066 147.125 30.655 147.125 31.0422V31.7391H151.117V12.8961H146.61V18.0199C146.61 20.8721 146.545 23.5308 146.481 23.9954C146.081 26.4992 144.407 27.9447 141.934 27.9189C141.058 27.906 140.827 27.8544 140.08 27.4672C138.663 26.7444 137.967 25.5571 137.723 23.3759C137.658 22.7564 137.594 20.1494 137.594 17.5682V12.8961H133.06L133.125 19.0524ZM165.581 18.6007C165.62 21.8014 165.723 24.7311 165.8 25.2731C166.328 28.732 168.35 31.0551 171.544 31.8682C174.03 32.5135 177.121 31.9585 178.963 30.5389L179.568 30.0742L179.645 30.9131L179.736 31.7391H183.702V12.8961H179.195V17.5682C179.195 24.2277 179.053 25.2215 177.932 26.4605C176.825 27.6995 175.112 28.2158 173.528 27.8157C172.034 27.4285 171.055 26.4863 170.54 24.9247C170.269 24.0987 170.256 23.8277 170.205 18.4716L170.166 12.8961H165.504L165.581 18.6007Z" fill="#032246"/>
</svg>
