<svg width="198" height="45" viewBox="0 0 198 45" fill="none" xmlns="http://www.w3.org/2000/svg">
<path fill-rule="evenodd" clip-rule="evenodd" d="M135.094 8.80273C131.072 8.80277 127.811 12.083 127.811 16.1294V28.631C127.811 30.9185 125.968 32.7728 123.694 32.7728H109.676V35.8767H126.348C130.371 35.8767 133.631 32.5963 133.631 28.5499V16.0483C133.631 13.7608 135.474 11.9065 137.748 11.9065L152.027 11.9065V8.80273H135.094Z" fill="black"/>
<path fill-rule="evenodd" clip-rule="evenodd" d="M72.2676 8.80273V11.9065H101.55C103.884 11.9065 105.776 13.8099 105.776 16.1578C105.776 18.5057 103.884 20.4091 101.55 20.4091H79.5502C75.5281 20.4091 72.2676 23.6893 72.2676 27.7357V35.8767H78.0874V27.6548C78.0874 25.3673 79.9307 23.513 82.2045 23.513H104.285C108.322 23.513 111.596 20.2199 111.595 16.1578C111.595 12.0957 108.322 8.80276 104.285 8.80273H72.2676Z" fill="black"/>
<path fill-rule="evenodd" clip-rule="evenodd" d="M157.639 8.80273V18.9122C157.639 21.4532 159.686 23.513 162.212 23.513H186.579C189.121 23.513 191.181 25.5858 191.181 28.1428C191.181 30.6999 189.121 32.7728 186.579 32.7728H157.639V35.8767H189.314C193.56 35.8767 197.001 32.4142 197.001 28.143C197.001 23.8717 193.56 20.4091 189.314 20.4091H165.297C164.282 20.4091 163.459 19.5812 163.459 18.56V11.9065H195.947V8.80273H157.639Z" fill="black"/>
<path d="M21.5391 0V41.7162L30.9229 44.7138V9.72178C30.9229 8.0866 31.6494 6.98695 32.8211 7.3709C34.3527 7.79696 34.6507 9.30583 34.6507 10.9444V24.9183C40.5027 27.7592 45.1042 24.9165 45.1042 17.4177C45.1042 9.72178 42.4109 6.30829 34.4666 3.55831C31.3397 2.50412 25.5313 0.740963 21.5391 0Z" fill="black"/>
<path d="M32.6992 38.6188L47.7928 33.2047C49.5035 32.5883 49.768 31.7127 48.3769 31.2563C46.9876 30.7999 44.4701 30.933 42.7593 31.5476L32.6992 35.1144V29.4426L33.2784 29.2473C33.2784 29.2473 36.1859 28.2099 40.2686 27.7536C44.3562 27.3073 49.3612 27.8125 53.2865 29.3146C57.7156 30.7242 58.2128 32.7938 57.0896 34.2202C55.9614 35.6499 53.2078 36.6704 53.2078 36.6704L32.6992 44.08V38.6188Z" fill="black"/>
<path d="M4.32481 38.0413C-0.21815 36.7531 -0.976427 34.0772 1.09251 32.5312C3.01247 31.1015 6.26653 30.0305 6.26653 30.0305L19.718 25.2227V30.7024L10.0378 34.19C8.32542 34.8063 8.06764 35.682 9.45196 36.135C10.8463 36.5964 13.3605 36.4651 15.0746 35.8454L19.718 34.153V39.0601C19.4217 39.1107 19.0953 39.1629 18.794 39.2117C14.1472 39.9746 9.1992 39.658 4.32481 38.0413Z" fill="black"/>
</svg>
