<svg width="95" height="75" viewBox="0 0 95 75" fill="none" xmlns="http://www.w3.org/2000/svg">
<path d="M23.7656 74.4718H19.445L12.0156 64.1725L4.53352 74.4718H0.212891L9.80258 61.2148L1.00325 49.0141H5.32388L12.0156 58.257L18.7073 49.0141H23.0279L14.1759 61.2148L23.7656 74.4718ZM46.2118 67.2359C46.2118 69.4542 45.4741 71.25 43.9988 72.5176C42.5234 73.7852 40.4158 74.4718 37.6759 74.4718H25.8205V63.1162H20.1299L22.501 59.8416H25.8205V49.0141H37.2017C39.7835 49.0141 41.7331 49.6479 43.103 50.8627C44.473 52.0775 45.158 53.7148 45.158 55.669C45.158 58.0986 44.0515 60 41.8385 61.2148C43.2611 61.743 44.3149 62.588 45.0526 63.5916C45.8429 64.5951 46.2118 65.8627 46.2118 67.2359ZM29.6669 59.8944H36.9382C38.4136 59.8944 39.5201 59.5775 40.2577 58.8908C40.9954 58.257 41.3642 57.2535 41.3642 55.9331C41.3642 54.8239 40.9954 53.9261 40.205 53.2923C39.4674 52.6585 38.3609 52.3415 36.9382 52.3415H29.6669V59.8944ZM42.3127 67.1303C42.3127 65.8099 41.8911 64.7535 41.1008 64.1197C40.3104 63.4331 39.0985 63.1162 37.5178 63.1162H29.6669V71.0916H37.4651C38.9932 71.0916 40.205 70.7218 41.0481 70.088C41.8911 69.4014 42.3127 68.3979 42.3127 67.1303ZM72.3463 61.743C72.3463 63.6972 72.0828 65.5458 71.5033 67.1303C70.9237 68.7148 70.0806 70.1409 68.9741 71.3556C67.8149 72.5704 66.4976 73.5211 65.0223 74.1021C63.547 74.7359 61.8609 75 59.964 75C58.1198 75 56.3811 74.6831 54.9057 74.1021C53.4304 73.4683 52.1131 72.5704 50.9539 71.3556C49.7947 70.1409 48.9517 68.7148 48.3721 67.1303C47.7925 65.5458 47.529 63.6972 47.529 61.743C47.529 59.7887 47.7925 57.9401 48.3721 56.3556C48.9517 54.7711 49.7947 53.2923 50.9539 52.0775C52.0604 50.8627 53.3777 49.9648 54.9057 49.331C56.3811 48.75 58.1198 48.4331 59.964 48.4331C61.8082 48.4331 63.4943 48.75 65.0223 49.331C66.4976 49.912 67.8676 50.8627 68.9741 52.0775C70.0806 53.2923 70.9763 54.7711 71.5033 56.3556C72.0302 57.9401 72.3463 59.7359 72.3463 61.743ZM51.5335 61.743C51.5335 64.7535 52.3239 67.1303 53.8519 68.8732C55.3799 70.6162 57.3822 71.5141 59.964 71.5141C62.4932 71.5141 64.5481 70.6162 66.0761 68.8732C67.6041 67.1303 68.3418 64.7535 68.3418 61.743C68.3418 58.7324 67.6041 56.3028 66.0761 54.5599C64.5481 52.8169 62.4932 51.919 59.964 51.919C57.4349 51.919 55.3799 52.8169 53.8519 54.5599C52.3239 56.3556 51.5335 58.7324 51.5335 61.743ZM84.5705 61.2148L93.4225 49.0141H89.1019L82.4102 58.257L75.7185 49.0141H71.3979L80.2499 61.2148L70.6602 74.4718H74.9808L82.4102 64.1725L89.8923 74.4718H94.2129L84.5705 61.2148ZM47.2129 17.007C47.2129 17.007 47.2656 17.007 47.2129 17.007C53.5885 21.8662 64.39 33.8028 61.1232 37.1831C57.3822 40.4577 52.5346 42.412 47.2129 42.412C41.8911 42.412 36.9909 40.4577 33.3026 37.1831C29.9831 33.8028 40.8373 21.8662 47.1602 17.0599C47.1602 17.007 47.2129 17.007 47.2129 17.007ZM58.2252 3.1162C55.0111 1.16197 51.4808 0 47.2129 0C42.945 0 39.4147 1.16197 36.2006 3.1162C36.1479 3.1162 36.1479 3.16901 36.1479 3.22183C36.1479 3.27465 36.2006 3.27465 36.2533 3.27465C40.3631 2.37676 46.5806 5.91549 47.1602 6.28521H47.2656C47.8452 5.91549 54.0627 2.37676 58.1725 3.27465C58.2252 3.27465 58.2779 3.27465 58.2779 3.22183C58.2779 3.16901 58.2779 3.1162 58.2252 3.1162ZM32.4068 6.07394C32.3541 6.07394 32.3541 6.12676 32.3015 6.12676C28.455 9.9824 26.084 15.3169 26.084 21.1796C26.084 25.9859 27.7174 30.4754 30.4046 34.0141C30.4046 34.0669 30.4573 34.0669 30.51 34.0669C30.5627 34.0669 30.5627 34.0141 30.51 33.9613C28.8766 28.9437 37.149 16.8486 41.4169 11.7782L41.4696 11.7254C41.4696 11.6725 41.4696 11.6725 41.4169 11.6725C34.936 5.22887 32.7757 5.91549 32.4068 6.07394ZM53.0089 11.6197L52.9562 11.6725C52.9562 11.6725 52.9562 11.7254 53.0089 11.7254C57.2768 16.7958 65.4965 28.8908 63.9158 33.9085V34.0141C63.9685 34.0141 64.0212 34.0141 64.0212 33.9613C66.7084 30.4225 68.3418 25.9331 68.3418 21.1268C68.3418 15.2641 65.9707 9.92958 62.0716 6.07394C62.0189 6.02113 62.0189 6.02113 61.9663 6.02113C61.6501 5.91549 59.4898 5.22887 53.0089 11.6197Z" fill="#032246"/>
</svg>
