<svg width="2227" height="240" viewBox="0 0 2227 240" fill="none" xmlns="http://www.w3.org/2000/svg">
<path d="M1070.04 28L1017.34 209.206H974.774L949.641 110.698L941.128 68.1329H940.722L932.209 110.698L907.076 209.206H863.7L811 28H851.133L886.807 177.586L923.291 28H959.775L996.26 177.586L1031.53 28H1070.04Z" fill="#F7F8FA"/>
<path d="M1574.74 209.206L1627.44 28H1670L1695.14 126.508L1703.65 169.073H1704.06L1712.57 126.508L1737.3 28H1781.48L1834.18 209.206H1794.05L1757.97 59.6198L1721.49 209.206H1685L1648.11 59.6198L1612.85 209.206H1574.74Z" fill="#F7F8FA"/>
<path d="M1213.95 119.211V209.206H1176.25V130.156C1176.25 117.995 1174.22 109.887 1169.36 105.833C1164.49 100.969 1159.22 98.9419 1151.93 98.9419C1146.66 98.9419 1141.79 100.158 1136.52 102.59C1131.66 105.023 1127.6 109.076 1124.36 114.752C1121.52 120.427 1119.5 127.724 1119.5 137.048V209.611H1082.2V28H1119.9V94.8881C1124.36 85.9697 1130.04 79.4836 1137.74 75.4297C1145.44 70.9705 1153.95 68.9436 1163.68 68.9436C1173.01 68.9436 1181.52 70.5652 1188.82 74.619C1196.11 78.2674 1202.19 83.9428 1206.25 91.2397C1211.92 98.5365 1213.95 108.266 1213.95 119.211Z" fill="#F7F8FA"/>
<path d="M1361.1 102.185C1355.02 91.6446 1346.92 83.537 1336.38 77.8616C1325.84 72.1863 1313.67 69.3486 1299.49 69.3486C1285.7 69.3486 1273.54 72.1863 1263 77.8616C1252.46 83.537 1244.35 91.6446 1238.27 102.185C1232.19 112.725 1229.36 125.697 1229.36 140.696C1229.36 155.695 1232.19 168.262 1238.27 179.207C1244.35 189.747 1252.46 197.855 1263 203.53C1273.54 209.206 1285.7 212.043 1299.49 212.043C1313.67 212.043 1325.43 209.206 1336.38 203.53C1346.92 197.855 1355.02 189.747 1361.1 179.207C1367.19 168.667 1370.02 155.695 1370.02 140.696C1370.02 125.697 1367.19 112.725 1361.1 102.185ZM1328.67 165.019C1326.24 171.505 1322.19 175.964 1317.73 179.613C1312.86 182.856 1307.19 184.477 1300.3 184.477C1293.41 184.477 1287.33 182.856 1282.87 179.613C1278 176.775 1274.35 171.505 1271.92 165.019C1269.49 158.533 1268.27 150.425 1268.27 141.101C1268.27 131.372 1269.49 123.264 1271.92 116.778C1274.35 110.292 1278.41 105.833 1282.87 102.185C1287.33 98.5361 1293.41 97.32 1300.3 97.32C1307.19 97.32 1313.27 98.9415 1317.73 102.185C1322.59 105.428 1326.24 110.292 1328.67 116.778C1331.11 123.264 1332.32 131.372 1332.32 141.101C1332.32 150.425 1331.11 158.533 1328.67 165.019Z" fill="#F7F8FA"/>
<path d="M1564.2 100.563C1558.93 91.2393 1551.63 83.537 1541.9 77.8616C1532.18 72.1863 1520.42 69.3486 1506.64 69.3486C1492.85 69.3486 1481.1 72.1863 1470.56 77.8616C1460.42 83.537 1451.91 91.6446 1446.23 102.185C1440.15 112.725 1437.32 125.697 1437.32 140.696C1437.32 155.695 1440.15 168.262 1446.23 179.207C1452.31 189.747 1460.42 197.855 1470.96 203.53C1481.5 209.206 1494.07 212.043 1508.66 212.043C1517.99 212.043 1526.5 210.827 1534.61 208.395C1542.72 205.962 1549.61 201.909 1555.69 197.044C1561.77 191.774 1565.82 186.099 1569.06 178.802L1539.07 167.451C1536.63 173.126 1532.58 177.18 1527.72 180.423C1522.45 183.261 1516.37 185.288 1508.26 185.288C1500.96 185.288 1494.47 183.666 1489.61 180.423C1484.34 177.586 1480.29 172.721 1477.45 166.235C1475.83 162.587 1474.61 158.127 1474.21 153.263H1571.09C1571.5 150.83 1571.5 147.587 1571.9 144.344C1571.9 141.101 1572.31 137.453 1572.31 134.21C1571.9 120.832 1569.47 110.292 1564.2 100.563ZM1474.21 126.508C1474.61 123.264 1475.42 119.616 1476.64 116.778C1479.07 110.292 1483.12 105.428 1487.99 102.185C1493.26 98.9415 1498.93 96.9146 1505.83 96.9146C1515.15 96.9146 1522.45 99.7523 1528.12 106.238C1532.58 111.508 1535.01 117.589 1535.82 126.508H1474.21Z" fill="#F7F8FA"/>
<path d="M2069.71 72.1863L2065.25 103.806C2063.63 102.995 2060.79 102.59 2058.36 102.185C2055.93 101.779 2052.28 101.779 2048.23 101.779C2042.55 101.779 2037.69 102.995 2032.42 105.428C2027.15 107.86 2023.09 112.319 2019.44 117.589C2016.2 123.264 2014.17 130.156 2014.17 138.264V209.206H1976.47V72.1863H2008.9L2011.34 98.9415C2014.99 89.6177 2020.26 82.3208 2027.55 77.0509C2034.44 71.7809 2043.36 69.3486 2053.9 69.3486C2056.74 69.3486 2059.98 69.754 2062.42 70.1594C2065.66 70.9701 2067.69 71.3755 2069.71 72.1863Z" fill="#F7F8FA"/>
<path d="M2227 209.206H2184.03L2146.33 148.399L2121.2 175.154V208.801H2083.49V28H2121.2V134.616L2180.79 72.1867H2223.35L2172.27 126.103L2227 209.206Z" fill="#F7F8FA"/>
<path d="M1952.15 91.6446C1946.88 83.9424 1939.99 78.267 1931.07 75.024C1922.15 71.3755 1912.02 69.3486 1899.86 69.3486C1882.43 69.3486 1868.24 72.997 1857.7 80.2939C1847.56 87.5908 1840.67 97.32 1837.02 109.481L1869.05 119.211C1871.08 111.103 1875.13 105.428 1879.99 102.185C1885.26 98.9415 1890.94 96.9146 1897.83 96.9146C1905.13 96.9146 1911.21 98.9415 1915.26 103.401C1919.72 107.86 1922.15 113.535 1922.15 121.643V126.913L1875.94 136.642C1863.78 139.074 1854.45 143.534 1847.56 150.02C1841.08 156.506 1837.83 165.019 1837.83 174.748C1837.83 182.856 1839.46 189.747 1843.51 195.017C1847.16 200.693 1852.43 204.746 1858.91 207.584C1865.81 210.422 1873.91 212.043 1882.83 212.043C1890.13 212.043 1897.43 210.827 1904.72 208.395C1911.61 205.962 1917.69 201.909 1922.56 197.449C1924.18 196.233 1925.4 194.612 1926.21 192.585C1927.02 199.071 1928.23 203.125 1929.04 210.016H1959.45V120.832C1959.85 109.076 1957.42 99.3469 1952.15 91.6446ZM1922.96 158.533C1922.96 163.803 1922.15 167.451 1920.53 171.1C1918.91 174.343 1916.88 177.18 1913.64 179.207C1910.8 181.234 1907.15 182.45 1903.91 183.666C1900.26 184.477 1896.61 184.883 1892.97 184.883C1888.1 184.883 1884.05 183.666 1880.8 181.64C1877.56 179.613 1875.53 175.559 1875.53 171.505C1875.53 166.64 1877.16 163.397 1880.4 161.37C1883.24 159.344 1888.1 157.722 1894.59 156.1L1923.37 150.425V158.533H1922.96Z" fill="#F7F8FA"/>
<path d="M1422.72 29.2163H1385.02V209.611H1422.72V29.2163Z" fill="#F7F8FA"/>
<path d="M684.5 114.5L575.5 5.5C572 2 567.167 0 562.167 0H468.833C458.5 0 450 8.5 450 18.8333V105L350.5 5.5C347 2 342.167 0 337.167 0H243.833C233.5 0 225 8.5 225 18.8333V105L125.5 5.5C122 2 117.167 0 112.167 0H18.8333C8.5 0 0 8.5 0 18.8333V112.167C0 117.167 2 122 5.5 125.5L114.5 234.5C118 238 122.833 240 127.833 240H221.167C231.667 240 240 231.5 240 221.167V135L339.5 234.5C343 238 347.833 240 352.833 240H446.167C456.667 240 465 231.5 465 221.167V135L564.5 234.5C568 238 572.833 240 577.833 240H671.167C681.667 240 690 231.5 690 221.167V127.833C690 122.833 688 118 684.5 114.5ZM446.167 120H364C353.5 120 345.167 128.5 345.167 138.833V221L243.833 120H326C336.5 120 344.833 111.5 344.833 101.167V18.8333L446.167 120ZM463.333 101.167V18.8333C463.333 15.8333 465.833 13.3333 468.833 13.3333H551C554 13.3333 556.5 15.8333 556.5 18.8333V101C556.5 104 554 106.5 551 106.5H468.833C465.833 106.667 463.333 104.167 463.333 101.167ZM570 138.833V221L468.833 120H551C561.5 120 569.833 111.5 569.833 101.167V18.8333L671.167 120H589C578.5 120 570 128.5 570 138.833ZM676.667 221.167C676.667 224.167 674.167 226.667 671.167 226.667H589C586 226.667 583.5 224.167 583.5 221.167V138.833C583.5 135.833 586 133.333 589 133.333H671.167C674.167 133.333 676.667 135.833 676.667 138.833V221.167Z" fill="#F7F8FA"/>
</svg>
