<svg id="Layer_1" data-name="Layer 1" xmlns="http://www.w3.org/2000/svg" viewBox="0 0 74.5 81.61"><defs><style>.cls-1{fill:#2a9dd6;}</style></defs><path class="cls-1" d="M52.89,78.76,8.77,53.28C3.11,50,0,45.59,0,40.8s3.11-9.21,8.77-12.47L52.89,2.85c5.65-3.26,11-3.74,15.19-1.35S74.5,8.8,74.5,15.33v51c0,6.53-2.28,11.44-6.42,13.83S58.54,82,52.89,78.76ZM66.83,3.66C63.49,1.74,59,2.22,54.14,5L10,30.49C5.17,33.29,2.5,37,2.5,40.8S5.17,48.32,10,51.12L54.14,76.59c4.85,2.8,9.35,3.28,12.69,1.35S72,71.88,72,66.28V15.33C72,9.73,70.16,5.59,66.83,3.66Z"/></svg>