<svg xmlns="http://www.w3.org/2000/svg" xmlns:xlink="http://www.w3.org/1999/xlink" width="500" zoomAndPan="magnify" viewBox="0 0 375 374.999991" height="500" preserveAspectRatio="xMidYMid meet" version="1.0"><defs><g/><clipPath id="3d17b1c79b"><path d="M 132 104 L 302 104 L 302 247 L 132 247 Z M 132 104 " clip-rule="nonzero"/></clipPath><clipPath id="ff7f81d8c8"><path d="M 211.378906 297.835938 L 130.210938 154.179688 L 220.976562 102.898438 L 302.140625 246.554688 Z M 211.378906 297.835938 " clip-rule="nonzero"/></clipPath><clipPath id="e1ff55a381"><path d="M 130.386719 154.488281 L 211.550781 298.144531 L 302.316406 246.863281 L 221.148438 103.207031 Z M 130.386719 154.488281 " clip-rule="nonzero"/></clipPath><clipPath id="56a74275f8"><path d="M 132 103 L 302 103 L 302 248 L 132 248 Z M 132 103 " clip-rule="nonzero"/></clipPath><clipPath id="0f416a0bde"><path d="M 211.378906 297.835938 L 130.210938 154.179688 L 220.976562 102.898438 L 302.140625 246.554688 Z M 211.378906 297.835938 " clip-rule="nonzero"/></clipPath><clipPath id="e02d8e1114"><path d="M 130.386719 154.488281 L 211.550781 298.144531 L 302.316406 246.863281 L 221.148438 103.207031 Z M 130.386719 154.488281 " clip-rule="nonzero"/></clipPath><clipPath id="b8767c22e5"><path d="M 77 153 L 189 153 L 189 248 L 77 248 Z M 77 153 " clip-rule="nonzero"/></clipPath><clipPath id="7f34716143"><path d="M 188.242188 186.265625 L 133.140625 280.027344 L 77.53125 247.347656 L 132.632812 153.589844 Z M 188.242188 186.265625 " clip-rule="nonzero"/></clipPath><clipPath id="f3533b7b56"><path d="M 133.25 279.84375 L 188.347656 186.085938 L 132.738281 153.40625 L 77.640625 247.164062 Z M 133.25 279.84375 " clip-rule="nonzero"/></clipPath><clipPath id="d7d214e7f4"><path d="M 133 49 L 222 49 L 222 154 L 133 154 Z M 133 49 " clip-rule="nonzero"/></clipPath><clipPath id="c2a3dd351c"><path d="M 221.496094 103.464844 L 133.46875 153.488281 L 101.601562 97.414062 L 189.628906 47.386719 Z M 221.496094 103.464844 " clip-rule="nonzero"/></clipPath><clipPath id="8d194e0414"><path d="M 189.769531 47.628906 L 101.738281 97.65625 L 133.609375 153.734375 L 221.636719 103.707031 Z M 189.769531 47.628906 " clip-rule="nonzero"/></clipPath><clipPath id="ce05538bef"><path d="M 133 48 L 222 48 L 222 154 L 133 154 Z M 133 48 " clip-rule="nonzero"/></clipPath><clipPath id="39110072ea"><path d="M 221.496094 103.464844 L 133.46875 153.488281 L 101.601562 97.414062 L 189.628906 47.386719 Z M 221.496094 103.464844 " clip-rule="nonzero"/></clipPath><clipPath id="e3c71d8a7e"><path d="M 189.769531 47.628906 L 101.738281 97.65625 L 133.609375 153.734375 L 221.636719 103.707031 Z M 189.769531 47.628906 " clip-rule="nonzero"/></clipPath></defs><rect x="-37.5" width="450" fill="#ffffff" y="-37.499999" height="449.999989" fill-opacity="1"/><rect x="-37.5" width="450" fill="#ffffff" y="-37.499999" height="449.999989" fill-opacity="1"/><rect x="-37.5" width="450" fill="#ffffff" y="-37.499999" height="449.999989" fill-opacity="1"/><g clip-path="url(#3d17b1c79b)"><g clip-path="url(#ff7f81d8c8)"><g clip-path="url(#e1ff55a381)"><path fill="#ffff00" d="M 132.992188 153.800781 L 220.804688 104.183594 L 301.257812 246.578125 C 301.257812 246.578125 132.03125 157.199219 132.992188 153.800781 Z M 132.992188 153.800781 " fill-opacity="1" fill-rule="nonzero"/></g></g></g><g clip-path="url(#56a74275f8)"><g clip-path="url(#0f416a0bde)"><g clip-path="url(#e02d8e1114)"><path fill="#ffff00" d="M 301.851562 246.242188 L 221.398438 103.847656 C 221.210938 103.515625 220.800781 103.402344 220.46875 103.589844 L 132.65625 153.203125 C 132.488281 153.296875 132.386719 153.449219 132.324219 153.613281 C 132.148438 154.246094 132.011719 154.730469 139.597656 159.332031 C 143.898438 161.960938 150.285156 165.667969 158.554688 170.324219 C 172.476562 178.164062 191.945312 188.835938 216.457031 202.058594 C 258.15625 224.574219 300.53125 246.957031 300.949219 247.195312 C 301.210938 247.328125 301.539062 247.300781 301.746094 247.054688 C 301.957031 246.8125 302 246.503906 301.851562 246.242188 Z M 220.546875 105.113281 L 299.523438 244.890625 C 290.675781 240.214844 254.679688 221.136719 218.765625 201.761719 C 151.828125 165.675781 136.511719 156.207031 133.992188 154.019531 Z M 220.546875 105.113281 " fill-opacity="1" fill-rule="nonzero"/></g></g></g><g clip-path="url(#b8767c22e5)"><g clip-path="url(#7f34716143)"><g clip-path="url(#f3533b7b56)"><path fill="#2e4bb1" d="M 188.324219 186.070312 L 132.753906 153.414062 L 77.65625 247.175781 Z M 188.324219 186.070312 " fill-opacity="1" fill-rule="nonzero"/></g></g></g><g clip-path="url(#d7d214e7f4)"><g clip-path="url(#c2a3dd351c)"><g clip-path="url(#8d194e0414)"><path fill="#e51d23" d="M 190.199219 49.242188 L 221.03125 103.496094 L 133.777344 153.082031 C 133.777344 153.082031 188.105469 48.644531 190.199219 49.242188 Z M 190.199219 49.242188 " fill-opacity="1" fill-rule="nonzero"/></g></g></g><g clip-path="url(#ce05538bef)"><g clip-path="url(#39110072ea)"><g clip-path="url(#e3c71d8a7e)"><path fill="#e51d23" d="M 133.988281 153.449219 L 221.242188 103.863281 C 221.445312 103.746094 221.515625 103.492188 221.398438 103.289062 L 190.566406 49.035156 C 190.507812 48.929688 190.414062 48.867188 190.3125 48.828125 C 189.921875 48.71875 189.625 48.636719 186.824219 53.316406 C 185.222656 55.96875 182.96875 59.910156 180.136719 65.015625 C 175.367188 73.605469 168.878906 85.621094 160.835938 100.75 C 147.148438 126.480469 133.542969 152.632812 133.398438 152.890625 C 133.316406 153.050781 133.335938 153.253906 133.488281 153.382812 C 133.636719 153.511719 133.828125 153.539062 133.988281 153.449219 Z M 220.460938 103.335938 L 134.808594 152.011719 C 137.652344 146.550781 149.25 124.335938 161.03125 102.171875 C 182.96875 60.863281 188.734375 51.414062 190.070312 49.859375 Z M 220.460938 103.335938 " fill-opacity="1" fill-rule="nonzero"/></g></g></g><g fill="#000000" fill-opacity="1"><g transform="translate(119.900387, 267.783806)"><g><path d="M 5.449219 -5.574219 L 14.394531 -5.574219 L 16.507812 0 L 19.90625 0 L 11.054688 -22.332031 L 8.726562 -22.332031 L -0.125 0 L 3.308594 0 Z M 13.230469 -8.566406 L 6.613281 -8.566406 L 9.921875 -17.261719 Z M 13.230469 -8.566406 "/></g></g></g><g fill="#000000" fill-opacity="1"><g transform="translate(139.871413, 267.783806)"><g><path d="M 10.269531 -13.953125 L 4.15625 -22.269531 L 0.253906 -22.269531 L 8.347656 -11.214844 L 0.378906 0 L 4.285156 0 L 10.269531 -8.664062 L 16.285156 0 L 20.160156 0 L 12.191406 -11.214844 L 20.347656 -22.269531 L 16.472656 -22.269531 Z M 10.269531 -13.953125 "/></g></g></g><g fill="#000000" fill-opacity="1"><g transform="translate(160.440942, 267.783806)"><g><path d="M 9.984375 -19.308594 L 14.082031 -19.308594 L 14.082031 -22.238281 L 2.710938 -22.238281 L 2.710938 -19.308594 L 6.804688 -19.308594 L 6.804688 -2.960938 L 2.710938 -2.960938 L 2.710938 0 L 14.082031 0 L 14.082031 -2.960938 L 9.984375 -2.960938 Z M 9.984375 -19.308594 "/></g></g></g><g fill="#000000" fill-opacity="1"><g transform="translate(177.19896, 267.783806)"><g><path d="M 5.449219 -5.574219 L 14.394531 -5.574219 L 16.507812 0 L 19.90625 0 L 11.054688 -22.332031 L 8.726562 -22.332031 L -0.125 0 L 3.308594 0 Z M 13.230469 -8.566406 L 6.613281 -8.566406 L 9.921875 -17.261719 Z M 13.230469 -8.566406 "/></g></g></g><g fill="#000000" fill-opacity="1"><g transform="translate(197.169985, 267.783806)"><g><path d="M 16.253906 -3.179688 L 5.890625 -3.179688 L 5.890625 -22.050781 L 2.710938 -22.050781 L 2.710938 0 L 16.253906 0 Z M 16.253906 -3.179688 "/></g></g></g><g fill="#000000" fill-opacity="1"><g transform="translate(213.58151, 267.783806)"><g/></g></g><g fill="#000000" fill-opacity="1"><g transform="translate(221.425015, 267.783806)"><g><path d="M 9.984375 -19.308594 L 14.082031 -19.308594 L 14.082031 -22.238281 L 2.710938 -22.238281 L 2.710938 -19.308594 L 6.804688 -19.308594 L 6.804688 -2.960938 L 2.710938 -2.960938 L 2.710938 0 L 14.082031 0 L 14.082031 -2.960938 L 9.984375 -2.960938 Z M 9.984375 -19.308594 "/></g></g></g><g fill="#000000" fill-opacity="1"><g transform="translate(238.183033, 267.783806)"><g><path d="M 6.867188 -19.246094 L 6.867188 0 L 10.046875 0 L 10.046875 -19.246094 L 16.695312 -19.246094 L 16.695312 -22.269531 L 0.1875 -22.269531 L 0.1875 -19.246094 Z M 6.867188 -19.246094 "/></g></g></g><g fill="#000000" fill-opacity="1"><g transform="translate(135.755855, 292.833818)"><g><path d="M 7.847656 -9.34375 L 9.648438 -9.414062 C 9.324219 -11.71875 7.308594 -12.726562 5.363281 -12.726562 C 3.90625 -12.726562 2.394531 -12.148438 1.546875 -11.050781 C 1.078125 -10.441406 0.847656 -9.71875 0.847656 -8.964844 C 0.847656 -8.875 0.863281 -8.765625 0.863281 -8.65625 L 0.863281 -8.675781 C 1.0625 -6.046875 3.367188 -5.617188 5.328125 -5.417969 C 6.589844 -5.292969 7.882812 -5.128906 8.101562 -4.175781 C 8.136719 -4.015625 8.152344 -3.871094 8.152344 -3.742188 C 8.152344 -2.449219 6.679688 -1.691406 5.328125 -1.691406 C 4.15625 -1.691406 2.734375 -2.304688 2.609375 -3.472656 L 2.609375 -3.402344 L 2.59375 -3.671875 L 0.757812 -3.636719 L 0.773438 -3.292969 C 1.007812 -1.042969 3.367188 0.109375 5.308594 0.109375 C 7.578125 0.109375 9.988281 -1.296875 9.988281 -3.726562 C 9.988281 -3.976562 9.953125 -4.285156 9.898438 -4.554688 C 9.414062 -6.570312 7.273438 -7.019531 5.542969 -7.234375 C 4.140625 -7.363281 2.683594 -7.542969 2.683594 -9 C 2.683594 -9.359375 2.773438 -9.71875 2.988281 -9.988281 C 3.511719 -10.65625 4.464844 -10.945312 5.328125 -10.945312 C 6.40625 -10.945312 7.597656 -10.457031 7.847656 -9.34375 Z M 7.847656 -9.34375 "/></g></g></g><g fill="#000000" fill-opacity="1"><g transform="translate(146.465819, 292.833818)"><g><path d="M 0.628906 -6.300781 C 0.628906 -2.664062 3.527344 0.234375 7.164062 0.234375 C 10.800781 0.234375 13.714844 -2.664062 13.714844 -6.300781 C 13.714844 -9.9375 10.800781 -12.851562 7.164062 -12.851562 C 3.527344 -12.851562 0.628906 -9.9375 0.628906 -6.300781 Z M 2.503906 -6.300781 C 2.503906 -8.890625 4.570312 -10.980469 7.164062 -10.980469 C 9.757812 -10.980469 11.84375 -8.890625 11.84375 -6.300781 C 11.84375 -3.707031 9.757812 -1.636719 7.164062 -1.636719 C 4.570312 -1.636719 2.503906 -3.707031 2.503906 -6.300781 Z M 2.503906 -6.300781 "/></g></g></g><g fill="#000000" fill-opacity="1"><g transform="translate(160.937776, 292.833818)"><g><path d="M 9.289062 -1.816406 L 3.367188 -1.816406 L 3.367188 -12.601562 L 1.546875 -12.601562 L 1.546875 0 L 9.289062 0 Z M 9.289062 -1.816406 "/></g></g></g><g fill="#000000" fill-opacity="1"><g transform="translate(170.315751, 292.833818)"><g><path d="M 6.046875 0.125 C 8.207031 0.125 10.691406 -1.207031 10.691406 -3.761719 L 10.691406 -12.726562 L 8.855469 -12.726562 L 8.855469 -3.78125 C 8.855469 -2.394531 7.363281 -1.691406 6.046875 -1.691406 C 4.714844 -1.691406 3.222656 -2.375 3.222656 -3.761719 L 3.222656 -12.726562 L 1.386719 -12.726562 L 1.386719 -3.78125 C 1.386719 -1.207031 3.835938 0.125 6.046875 0.125 Z M 6.046875 0.125 "/></g></g></g><g fill="#000000" fill-opacity="1"><g transform="translate(182.393718, 292.833818)"><g><path d="M 3.925781 -10.996094 L 3.925781 0 L 5.742188 0 L 5.742188 -10.996094 L 9.539062 -10.996094 L 9.539062 -12.726562 L 0.109375 -12.726562 L 0.109375 -10.996094 Z M 3.925781 -10.996094 "/></g></g></g><g fill="#000000" fill-opacity="1"><g transform="translate(192.059684, 292.833818)"><g><path d="M 5.707031 -11.035156 L 8.046875 -11.035156 L 8.046875 -12.707031 L 1.546875 -12.707031 L 1.546875 -11.035156 L 3.886719 -11.035156 L 3.886719 -1.691406 L 1.546875 -1.691406 L 1.546875 0 L 8.046875 0 L 8.046875 -1.691406 L 5.707031 -1.691406 Z M 5.707031 -11.035156 "/></g></g></g><g fill="#000000" fill-opacity="1"><g transform="translate(201.635653, 292.833818)"><g><path d="M 0.628906 -6.300781 C 0.628906 -2.664062 3.527344 0.234375 7.164062 0.234375 C 10.800781 0.234375 13.714844 -2.664062 13.714844 -6.300781 C 13.714844 -9.9375 10.800781 -12.851562 7.164062 -12.851562 C 3.527344 -12.851562 0.628906 -9.9375 0.628906 -6.300781 Z M 2.503906 -6.300781 C 2.503906 -8.890625 4.570312 -10.980469 7.164062 -10.980469 C 9.757812 -10.980469 11.84375 -8.890625 11.84375 -6.300781 C 11.84375 -3.707031 9.757812 -1.636719 7.164062 -1.636719 C 4.570312 -1.636719 2.503906 -3.707031 2.503906 -6.300781 Z M 2.503906 -6.300781 "/></g></g></g><g fill="#000000" fill-opacity="1"><g transform="translate(216.10761, 292.833818)"><g><path d="M 1.546875 -12.601562 L 1.546875 0 L 3.367188 0 L 3.367188 -8.800781 L 9.449219 0 L 10.890625 0 L 10.890625 -12.601562 L 9.089844 -12.601562 L 9.089844 -3.726562 L 2.953125 -12.601562 Z M 1.546875 -12.601562 "/></g></g></g><g fill="#000000" fill-opacity="1"><g transform="translate(228.545575, 292.833818)"><g><path d="M 7.847656 -9.34375 L 9.648438 -9.414062 C 9.324219 -11.71875 7.308594 -12.726562 5.363281 -12.726562 C 3.90625 -12.726562 2.394531 -12.148438 1.546875 -11.050781 C 1.078125 -10.441406 0.847656 -9.71875 0.847656 -8.964844 C 0.847656 -8.875 0.863281 -8.765625 0.863281 -8.65625 L 0.863281 -8.675781 C 1.0625 -6.046875 3.367188 -5.617188 5.328125 -5.417969 C 6.589844 -5.292969 7.882812 -5.128906 8.101562 -4.175781 C 8.136719 -4.015625 8.152344 -3.871094 8.152344 -3.742188 C 8.152344 -2.449219 6.679688 -1.691406 5.328125 -1.691406 C 4.15625 -1.691406 2.734375 -2.304688 2.609375 -3.472656 L 2.609375 -3.402344 L 2.59375 -3.671875 L 0.757812 -3.636719 L 0.773438 -3.292969 C 1.007812 -1.042969 3.367188 0.109375 5.308594 0.109375 C 7.578125 0.109375 9.988281 -1.296875 9.988281 -3.726562 C 9.988281 -3.976562 9.953125 -4.285156 9.898438 -4.554688 C 9.414062 -6.570312 7.273438 -7.019531 5.542969 -7.234375 C 4.140625 -7.363281 2.683594 -7.542969 2.683594 -9 C 2.683594 -9.359375 2.773438 -9.71875 2.988281 -9.988281 C 3.511719 -10.65625 4.464844 -10.945312 5.328125 -10.945312 C 6.40625 -10.945312 7.597656 -10.457031 7.847656 -9.34375 Z M 7.847656 -9.34375 "/></g></g></g></svg>
